<?xml version="1.0" encoding="UTF-8" standalone="no"?>
<svg
   xmlns:dc="http://purl.org/dc/elements/1.1/"
   xmlns:cc="http://creativecommons.org/ns#"
   xmlns:rdf="http://www.w3.org/1999/02/22-rdf-syntax-ns#"
   xmlns:svg="http://www.w3.org/2000/svg"
   xmlns="http://www.w3.org/2000/svg"
   id="svg8"
   version="1.1"
   style=" fill:#000000;"
   viewBox="0 0 48 48"
   height="48"
   width="48"
   y="0px"
   x="0px">
  <metadata
     id="metadata14">
    <rdf:RDF>
      <cc:Work
         rdf:about="">
        <dc:format>image/svg+xml</dc:format>
        <dc:type
           rdf:resource="http://purl.org/dc/dcmitype/StillImage" />
      </cc:Work>
    </rdf:RDF>
  </metadata>
  <defs
     id="defs12" />
  <path
     id="path2"
     d="M38,44H12V4h26c2.2,0,4,1.8,4,4v32C42,42.2,40.2,44,38,44"
     fill="#F44336" />
  <path
     id="path4"
     d="M10,4h2v40h-2c-2.2,0-4-1.8-4-4V8C6,5.8,7.8,4,10,4"
     fill="#BF360C" />
  <path
     id="path6"
     d="M26,14c-5.5,0-10,4.5-10,10c0,5.5,4.5,10,10,10c5.5,0,10-4.5,10-10C36,18.5,31.5,14,26,14z M32,26h-4v4h-4v-4h-4v-4h4v-4h4v4h4V26z"
     fill="#FFF" />
</svg>
